<svg width="206" height="205" viewBox="0 0 206 205" fill="none" xmlns="http://www.w3.org/2000/svg">
<path d="M34.9453 51.25C33.9453 51.25 33.1615 51.1354 32.5938 50.9062C32.026 50.6771 31.6198 50.3125 31.375 49.8125C31.1354 49.3125 31.0182 48.6328 31.0234 47.7734L31.0391 42.8984C31.0391 41.737 31.349 40.8776 31.9688 40.3203C32.5938 39.763 33.5547 39.4844 34.8516 39.4844C36.013 39.4844 36.9115 39.7135 37.5469 40.1719C38.1823 40.625 38.5 41.401 38.5 42.5H37.2031C37.2031 42.0156 37.1198 41.6406 36.9531 41.375C36.7917 41.1042 36.5391 40.9141 36.1953 40.8047C35.8516 40.6953 35.3906 40.6406 34.8125 40.6406C34.2292 40.6406 33.763 40.7161 33.4141 40.8672C33.0651 41.013 32.8099 41.2448 32.6484 41.5625C32.487 41.8802 32.401 42.3073 32.3906 42.8438L32.3594 45.1172C32.6354 44.7161 32.9922 44.4297 33.4297 44.2578C33.8724 44.0859 34.4714 44 35.2266 44C36.1484 44 36.862 44.1094 37.3672 44.3281C37.8776 44.5469 38.2422 44.9089 38.4609 45.4141C38.6797 45.9193 38.7891 46.6302 38.7891 47.5469C38.7891 48.5052 38.6771 49.2474 38.4531 49.7734C38.2344 50.2995 37.8516 50.6771 37.3047 50.9062C36.7578 51.1354 35.9714 51.25 34.9453 51.25ZM34.9297 50.0938C35.6484 50.0938 36.1771 50.026 36.5156 49.8906C36.8594 49.75 37.0911 49.5052 37.2109 49.1562C37.3359 48.8073 37.3984 48.2734 37.3984 47.5547C37.3984 46.9245 37.3255 46.4375 37.1797 46.0938C37.0391 45.7448 36.7995 45.4948 36.4609 45.3438C36.1276 45.1927 35.6562 45.1172 35.0469 45.1172C34.3073 45.1172 33.7161 45.224 33.2734 45.4375C32.8359 45.651 32.5339 45.9818 32.3672 46.4297L32.3828 47.7734C32.3932 48.3932 32.4766 48.8698 32.6328 49.2031C32.7891 49.5312 33.0469 49.763 33.4062 49.8984C33.7656 50.0286 34.2734 50.0938 34.9297 50.0938ZM47.2578 40.8984C46.3724 41.9089 45.5938 42.9844 44.9219 44.125C44.25 45.2604 43.724 46.4167 43.3438 47.5938C42.9635 48.7708 42.7734 49.9062 42.7734 51H41.4141C41.4141 49.9062 41.5911 48.7786 41.9453 47.6172C42.2995 46.4557 42.7943 45.3151 43.4297 44.1953C44.0651 43.0755 44.8073 42.0104 45.6562 41H39.8125V39.7422H47.2109L47.2578 40.8984ZM50.1953 45.2734C49.7734 45.2734 49.4271 45.2135 49.1562 45.0938C48.8906 44.974 48.6589 44.7943 48.4609 44.5547C48.2839 44.3411 48.1589 44.0833 48.0859 43.7812C48.013 43.474 47.9766 43.1172 47.9766 42.7109C47.9766 42.3047 48.013 41.9479 48.0859 41.6406C48.1589 41.3333 48.2839 41.0703 48.4609 40.8516C48.6536 40.6068 48.8828 40.4245 49.1484 40.3047C49.4193 40.1849 49.7656 40.125 50.1875 40.125C50.6042 40.125 50.9453 40.1849 51.2109 40.3047C51.4766 40.4245 51.7083 40.6042 51.9062 40.8438C52.0781 41.0573 52.1979 41.3177 52.2656 41.625C52.3385 41.9271 52.375 42.2839 52.375 42.6953C52.375 43.1016 52.3385 43.4583 52.2656 43.7656C52.1979 44.0677 52.0781 44.3281 51.9062 44.5469C51.7083 44.7917 51.4766 44.974 51.2109 45.0938C50.9505 45.2135 50.612 45.2734 50.1953 45.2734ZM50.625 51.2188L55.125 40.1406L55.9531 40.4609L51.4609 51.5469L50.625 51.2188ZM50.1875 44.5547C50.4688 44.5547 50.6797 44.5078 50.8203 44.4141C50.9609 44.3203 51.0807 44.1771 51.1797 43.9844C51.3359 43.6927 51.4141 43.2682 51.4141 42.7109C51.4141 42.1432 51.3385 41.7083 51.1875 41.4062C51.0885 41.2135 50.9688 41.0729 50.8281 40.9844C50.6875 40.8906 50.474 40.8438 50.1875 40.8438C49.901 40.8438 49.6875 40.8906 49.5469 40.9844C49.4062 41.0729 49.2839 41.2135 49.1797 41.4062C49.0964 41.5625 49.0339 41.7526 48.9922 41.9766C48.9557 42.2005 48.9375 42.4245 48.9375 42.6484C48.9375 42.9036 48.9557 43.151 48.9922 43.3906C49.0339 43.625 49.0938 43.8229 49.1719 43.9844C49.2708 44.1771 49.3906 44.3203 49.5312 44.4141C49.6771 44.5078 49.8958 44.5547 50.1875 44.5547ZM56.6641 50.5938C56.2422 50.5938 55.8958 50.5339 55.625 50.4141C55.3594 50.2943 55.1276 50.1146 54.9297 49.875C54.7526 49.6615 54.6276 49.4036 54.5547 49.1016C54.4818 48.7943 54.4453 48.4375 54.4453 48.0312C54.4453 47.6302 54.4818 47.276 54.5547 46.9688C54.6328 46.6562 54.7578 46.3906 54.9297 46.1719C55.1224 45.9271 55.3516 45.7448 55.6172 45.625C55.888 45.5052 56.2344 45.4453 56.6562 45.4453C57.0729 45.4453 57.4141 45.5052 57.6797 45.625C57.9505 45.7448 58.1823 45.9245 58.375 46.1641C58.5469 46.3776 58.6667 46.638 58.7344 46.9453C58.8073 47.2474 58.8438 47.6042 58.8438 48.0156C58.8438 48.4271 58.8099 48.7865 58.7422 49.0938C58.6745 49.3958 58.5521 49.6536 58.375 49.8672C58.1771 50.112 57.9453 50.2943 57.6797 50.4141C57.4193 50.5339 57.0807 50.5938 56.6641 50.5938ZM56.6562 49.875C56.9375 49.875 57.1484 49.8281 57.2891 49.7344C57.4297 49.6406 57.5495 49.4974 57.6484 49.3047C57.8047 49.013 57.8828 48.5885 57.8828 48.0312C57.8828 47.4635 57.8073 47.0286 57.6562 46.7266C57.5573 46.5339 57.4375 46.3932 57.2969 46.3047C57.1562 46.2109 56.9427 46.1641 56.6562 46.1641C56.3698 46.1641 56.1562 46.2109 56.0156 46.3047C55.875 46.3932 55.7526 46.5339 55.6484 46.7266C55.5651 46.8828 55.5026 47.0729 55.4609 47.2969C55.4245 47.5208 55.4062 47.7448 55.4062 47.9688C55.4062 48.224 55.4245 48.4714 55.4609 48.7109C55.5026 48.9453 55.5625 49.1432 55.6406 49.3047C55.7396 49.4974 55.8594 49.6406 56 49.7344C56.1458 49.8281 56.3646 49.875 56.6562 49.875Z" fill="black"/>
<path d="M37.7578 153.898C36.8724 154.909 36.0938 155.984 35.4219 157.125C34.75 158.26 34.224 159.417 33.8438 160.594C33.4635 161.771 33.2734 162.906 33.2734 164H31.9141C31.9141 162.906 32.0911 161.779 32.4453 160.617C32.7995 159.456 33.2943 158.315 33.9297 157.195C34.5651 156.076 35.3073 155.01 36.1562 154H30.3125V152.742H37.7109L37.7578 153.898ZM41.9844 164.195C40.7656 164.195 39.8802 163.971 39.3281 163.523C38.776 163.07 38.5 162.365 38.5 161.406H39.8438C39.8438 161.818 39.9141 162.148 40.0547 162.398C40.2005 162.643 40.4297 162.823 40.7422 162.938C41.0547 163.052 41.4714 163.109 41.9922 163.109C42.7005 163.109 43.2344 163.034 43.5938 162.883C43.9583 162.732 44.2135 162.466 44.3594 162.086C44.5052 161.706 44.5781 161.143 44.5781 160.398C44.5781 159.799 44.5052 159.336 44.3594 159.008C44.2188 158.674 43.9792 158.438 43.6406 158.297C43.3073 158.151 42.8385 158.078 42.2344 158.078C41.724 158.078 41.2865 158.161 40.9219 158.328C40.5573 158.495 40.2005 158.776 39.8516 159.172L38.7344 158.766L39.1641 152.75H45.4922V153.891H40.4766L40.1094 158.008C40.3333 157.69 40.6328 157.427 41.0078 157.219C41.3828 157.01 41.8854 156.906 42.5156 156.906C43.349 156.906 44.013 157.023 44.5078 157.258C45.0078 157.492 45.3698 157.862 45.5938 158.367C45.8229 158.872 45.9375 159.549 45.9375 160.398C45.9375 161.315 45.7995 162.049 45.5234 162.602C45.2526 163.154 44.8281 163.557 44.25 163.812C43.6771 164.068 42.9219 164.195 41.9844 164.195ZM49.4141 158.273C48.9922 158.273 48.6458 158.214 48.375 158.094C48.1094 157.974 47.8776 157.794 47.6797 157.555C47.5026 157.341 47.3776 157.083 47.3047 156.781C47.2318 156.474 47.1953 156.117 47.1953 155.711C47.1953 155.305 47.2318 154.948 47.3047 154.641C47.3776 154.333 47.5026 154.07 47.6797 153.852C47.8724 153.607 48.1016 153.424 48.3672 153.305C48.638 153.185 48.9844 153.125 49.4062 153.125C49.8229 153.125 50.1641 153.185 50.4297 153.305C50.6953 153.424 50.9271 153.604 51.125 153.844C51.2969 154.057 51.4167 154.318 51.4844 154.625C51.5573 154.927 51.5938 155.284 51.5938 155.695C51.5938 156.102 51.5573 156.458 51.4844 156.766C51.4167 157.068 51.2969 157.328 51.125 157.547C50.9271 157.792 50.6953 157.974 50.4297 158.094C50.1693 158.214 49.8307 158.273 49.4141 158.273ZM49.8438 164.219L54.3438 153.141L55.1719 153.461L50.6797 164.547L49.8438 164.219ZM49.4062 157.555C49.6875 157.555 49.8984 157.508 50.0391 157.414C50.1797 157.32 50.2995 157.177 50.3984 156.984C50.5547 156.693 50.6328 156.268 50.6328 155.711C50.6328 155.143 50.5573 154.708 50.4062 154.406C50.3073 154.214 50.1875 154.073 50.0469 153.984C49.9062 153.891 49.6927 153.844 49.4062 153.844C49.1198 153.844 48.9062 153.891 48.7656 153.984C48.625 154.073 48.5026 154.214 48.3984 154.406C48.3151 154.562 48.2526 154.753 48.2109 154.977C48.1745 155.201 48.1562 155.424 48.1562 155.648C48.1562 155.904 48.1745 156.151 48.2109 156.391C48.2526 156.625 48.3125 156.823 48.3906 156.984C48.4896 157.177 48.6094 157.32 48.75 157.414C48.8958 157.508 49.1146 157.555 49.4062 157.555ZM55.8828 163.594C55.4609 163.594 55.1146 163.534 54.8438 163.414C54.5781 163.294 54.3464 163.115 54.1484 162.875C53.9714 162.661 53.8464 162.404 53.7734 162.102C53.7005 161.794 53.6641 161.438 53.6641 161.031C53.6641 160.63 53.7005 160.276 53.7734 159.969C53.8516 159.656 53.9766 159.391 54.1484 159.172C54.3411 158.927 54.5703 158.745 54.8359 158.625C55.1068 158.505 55.4531 158.445 55.875 158.445C56.2917 158.445 56.6328 158.505 56.8984 158.625C57.1693 158.745 57.401 158.924 57.5938 159.164C57.7656 159.378 57.8854 159.638 57.9531 159.945C58.026 160.247 58.0625 160.604 58.0625 161.016C58.0625 161.427 58.0286 161.786 57.9609 162.094C57.8932 162.396 57.7708 162.654 57.5938 162.867C57.3958 163.112 57.1641 163.294 56.8984 163.414C56.638 163.534 56.2995 163.594 55.8828 163.594ZM55.875 162.875C56.1562 162.875 56.3672 162.828 56.5078 162.734C56.6484 162.641 56.7682 162.497 56.8672 162.305C57.0234 162.013 57.1016 161.589 57.1016 161.031C57.1016 160.464 57.026 160.029 56.875 159.727C56.776 159.534 56.6562 159.393 56.5156 159.305C56.375 159.211 56.1615 159.164 55.875 159.164C55.5885 159.164 55.375 159.211 55.2344 159.305C55.0938 159.393 54.9714 159.534 54.8672 159.727C54.7839 159.883 54.7214 160.073 54.6797 160.297C54.6432 160.521 54.625 160.745 54.625 160.969C54.625 161.224 54.6432 161.471 54.6797 161.711C54.7214 161.945 54.7812 162.143 54.8594 162.305C54.9583 162.497 55.0781 162.641 55.2188 162.734C55.3646 162.828 55.5833 162.875 55.875 162.875Z" fill="black"/>
<path d="M151.016 45.0859C152.562 45.3672 153.336 46.3359 153.336 47.9922C153.336 49.0807 153.023 49.8828 152.398 50.3984C151.773 50.9089 150.81 51.1641 149.508 51.1641C148.211 51.1641 147.253 50.9089 146.633 50.3984C146.013 49.8828 145.703 49.0807 145.703 47.9922C145.703 46.3464 146.471 45.3776 148.008 45.0859C146.643 44.6328 145.961 43.7682 145.961 42.4922C145.961 41.4661 146.25 40.7109 146.828 40.2266C147.406 39.7422 148.302 39.5 149.516 39.5C150.729 39.5 151.622 39.7422 152.195 40.2266C152.773 40.7109 153.062 41.4661 153.062 42.4922C153.062 43.7682 152.38 44.6328 151.016 45.0859ZM147.258 42.4922C147.258 42.8828 147.346 43.2292 147.523 43.5312C147.701 43.8333 147.958 44.0677 148.297 44.2344C148.635 44.401 149.042 44.4844 149.516 44.4844C149.99 44.4844 150.396 44.401 150.734 44.2344C151.073 44.0677 151.328 43.8333 151.5 43.5312C151.677 43.2292 151.766 42.8828 151.766 42.4922C151.766 41.8516 151.583 41.3828 151.219 41.0859C150.854 40.7839 150.286 40.6328 149.516 40.6328C148.745 40.6328 148.174 40.7839 147.805 41.0859C147.44 41.3828 147.258 41.8516 147.258 42.4922ZM149.508 50.0234C150.362 50.0234 150.992 49.8594 151.398 49.5312C151.805 49.2031 152.008 48.6901 152.008 47.9922C152.008 46.4453 151.146 45.6719 149.422 45.6719C148.609 45.6719 148.005 45.8672 147.609 46.2578C147.214 46.6432 147.016 47.2214 147.016 47.9922C147.016 48.6901 147.219 49.2031 147.625 49.5312C148.031 49.8594 148.659 50.0234 149.508 50.0234ZM158.867 51.25C157.867 51.25 157.083 51.1354 156.516 50.9062C155.948 50.6771 155.542 50.3125 155.297 49.8125C155.057 49.3125 154.94 48.6328 154.945 47.7734L154.961 42.8984C154.961 41.737 155.271 40.8776 155.891 40.3203C156.516 39.763 157.477 39.4844 158.773 39.4844C159.935 39.4844 160.833 39.7135 161.469 40.1719C162.104 40.625 162.422 41.401 162.422 42.5H161.125C161.125 42.0156 161.042 41.6406 160.875 41.375C160.714 41.1042 160.461 40.9141 160.117 40.8047C159.773 40.6953 159.312 40.6406 158.734 40.6406C158.151 40.6406 157.685 40.7161 157.336 40.8672C156.987 41.013 156.732 41.2448 156.57 41.5625C156.409 41.8802 156.323 42.3073 156.312 42.8438L156.281 45.1172C156.557 44.7161 156.914 44.4297 157.352 44.2578C157.794 44.0859 158.393 44 159.148 44C160.07 44 160.784 44.1094 161.289 44.3281C161.799 44.5469 162.164 44.9089 162.383 45.4141C162.602 45.9193 162.711 46.6302 162.711 47.5469C162.711 48.5052 162.599 49.2474 162.375 49.7734C162.156 50.2995 161.773 50.6771 161.227 50.9062C160.68 51.1354 159.893 51.25 158.867 51.25ZM158.852 50.0938C159.57 50.0938 160.099 50.026 160.438 49.8906C160.781 49.75 161.013 49.5052 161.133 49.1562C161.258 48.8073 161.32 48.2734 161.32 47.5547C161.32 46.9245 161.247 46.4375 161.102 46.0938C160.961 45.7448 160.721 45.4948 160.383 45.3438C160.049 45.1927 159.578 45.1172 158.969 45.1172C158.229 45.1172 157.638 45.224 157.195 45.4375C156.758 45.651 156.456 45.9818 156.289 46.4297L156.305 47.7734C156.315 48.3932 156.398 48.8698 156.555 49.2031C156.711 49.5312 156.969 49.763 157.328 49.8984C157.688 50.0286 158.195 50.0938 158.852 50.0938ZM166.195 45.2734C165.773 45.2734 165.427 45.2135 165.156 45.0938C164.891 44.974 164.659 44.7943 164.461 44.5547C164.284 44.3411 164.159 44.0833 164.086 43.7812C164.013 43.474 163.977 43.1172 163.977 42.7109C163.977 42.3047 164.013 41.9479 164.086 41.6406C164.159 41.3333 164.284 41.0703 164.461 40.8516C164.654 40.6068 164.883 40.4245 165.148 40.3047C165.419 40.1849 165.766 40.125 166.188 40.125C166.604 40.125 166.945 40.1849 167.211 40.3047C167.477 40.4245 167.708 40.6042 167.906 40.8438C168.078 41.0573 168.198 41.3177 168.266 41.625C168.339 41.9271 168.375 42.2839 168.375 42.6953C168.375 43.1016 168.339 43.4583 168.266 43.7656C168.198 44.0677 168.078 44.3281 167.906 44.5469C167.708 44.7917 167.477 44.974 167.211 45.0938C166.951 45.2135 166.612 45.2734 166.195 45.2734ZM166.625 51.2188L171.125 40.1406L171.953 40.4609L167.461 51.5469L166.625 51.2188ZM166.188 44.5547C166.469 44.5547 166.68 44.5078 166.82 44.4141C166.961 44.3203 167.081 44.1771 167.18 43.9844C167.336 43.6927 167.414 43.2682 167.414 42.7109C167.414 42.1432 167.339 41.7083 167.188 41.4062C167.089 41.2135 166.969 41.0729 166.828 40.9844C166.688 40.8906 166.474 40.8438 166.188 40.8438C165.901 40.8438 165.688 40.8906 165.547 40.9844C165.406 41.0729 165.284 41.2135 165.18 41.4062C165.096 41.5625 165.034 41.7526 164.992 41.9766C164.956 42.2005 164.938 42.4245 164.938 42.6484C164.938 42.9036 164.956 43.151 164.992 43.3906C165.034 43.625 165.094 43.8229 165.172 43.9844C165.271 44.1771 165.391 44.3203 165.531 44.4141C165.677 44.5078 165.896 44.5547 166.188 44.5547ZM172.664 50.5938C172.242 50.5938 171.896 50.5339 171.625 50.4141C171.359 50.2943 171.128 50.1146 170.93 49.875C170.753 49.6615 170.628 49.4036 170.555 49.1016C170.482 48.7943 170.445 48.4375 170.445 48.0312C170.445 47.6302 170.482 47.276 170.555 46.9688C170.633 46.6562 170.758 46.3906 170.93 46.1719C171.122 45.9271 171.352 45.7448 171.617 45.625C171.888 45.5052 172.234 45.4453 172.656 45.4453C173.073 45.4453 173.414 45.5052 173.68 45.625C173.951 45.7448 174.182 45.9245 174.375 46.1641C174.547 46.3776 174.667 46.638 174.734 46.9453C174.807 47.2474 174.844 47.6042 174.844 48.0156C174.844 48.4271 174.81 48.7865 174.742 49.0938C174.674 49.3958 174.552 49.6536 174.375 49.8672C174.177 50.112 173.945 50.2943 173.68 50.4141C173.419 50.5339 173.081 50.5938 172.664 50.5938ZM172.656 49.875C172.938 49.875 173.148 49.8281 173.289 49.7344C173.43 49.6406 173.549 49.4974 173.648 49.3047C173.805 49.013 173.883 48.5885 173.883 48.0312C173.883 47.4635 173.807 47.0286 173.656 46.7266C173.557 46.5339 173.438 46.3932 173.297 46.3047C173.156 46.2109 172.943 46.1641 172.656 46.1641C172.37 46.1641 172.156 46.2109 172.016 46.3047C171.875 46.3932 171.753 46.5339 171.648 46.7266C171.565 46.8828 171.503 47.0729 171.461 47.2969C171.424 47.5208 171.406 47.7448 171.406 47.9688C171.406 48.224 171.424 48.4714 171.461 48.7109C171.503 48.9453 171.562 49.1432 171.641 49.3047C171.74 49.4974 171.859 49.6406 172 49.7344C172.146 49.8281 172.365 49.875 172.656 49.875Z" fill="black"/>
<path d="M149.945 164.25C148.945 164.25 148.161 164.135 147.594 163.906C147.026 163.677 146.62 163.312 146.375 162.812C146.135 162.312 146.018 161.633 146.023 160.773L146.039 155.898C146.039 154.737 146.349 153.878 146.969 153.32C147.594 152.763 148.555 152.484 149.852 152.484C151.013 152.484 151.911 152.714 152.547 153.172C153.182 153.625 153.5 154.401 153.5 155.5H152.203C152.203 155.016 152.12 154.641 151.953 154.375C151.792 154.104 151.539 153.914 151.195 153.805C150.852 153.695 150.391 153.641 149.812 153.641C149.229 153.641 148.763 153.716 148.414 153.867C148.065 154.013 147.81 154.245 147.648 154.562C147.487 154.88 147.401 155.307 147.391 155.844L147.359 158.117C147.635 157.716 147.992 157.43 148.43 157.258C148.872 157.086 149.471 157 150.227 157C151.148 157 151.862 157.109 152.367 157.328C152.878 157.547 153.242 157.909 153.461 158.414C153.68 158.919 153.789 159.63 153.789 160.547C153.789 161.505 153.677 162.247 153.453 162.773C153.234 163.299 152.852 163.677 152.305 163.906C151.758 164.135 150.971 164.25 149.945 164.25ZM149.93 163.094C150.648 163.094 151.177 163.026 151.516 162.891C151.859 162.75 152.091 162.505 152.211 162.156C152.336 161.807 152.398 161.273 152.398 160.555C152.398 159.924 152.326 159.438 152.18 159.094C152.039 158.745 151.799 158.495 151.461 158.344C151.128 158.193 150.656 158.117 150.047 158.117C149.307 158.117 148.716 158.224 148.273 158.438C147.836 158.651 147.534 158.982 147.367 159.43L147.383 160.773C147.393 161.393 147.477 161.87 147.633 162.203C147.789 162.531 148.047 162.763 148.406 162.898C148.766 163.029 149.273 163.094 149.93 163.094ZM159.508 164.164C158.435 164.164 157.602 163.984 157.008 163.625C156.419 163.26 155.997 162.656 155.742 161.812C155.487 160.969 155.359 159.784 155.359 158.258C155.359 156.768 155.487 155.612 155.742 154.789C155.997 153.966 156.424 153.378 157.023 153.023C157.622 152.669 158.461 152.492 159.539 152.492C160.596 152.492 161.417 152.669 162 153.023C162.589 153.378 163.008 153.966 163.258 154.789C163.513 155.612 163.641 156.766 163.641 158.25C163.641 159.776 163.513 160.961 163.258 161.805C163.003 162.648 162.581 163.253 161.992 163.617C161.404 163.982 160.576 164.164 159.508 164.164ZM159.492 163.023C160.247 163.023 160.818 162.888 161.203 162.617C161.589 162.346 161.859 161.875 162.016 161.203C162.172 160.526 162.25 159.526 162.25 158.203C162.25 157.026 162.167 156.109 162 155.453C161.833 154.797 161.555 154.328 161.164 154.047C160.773 153.766 160.229 153.625 159.531 153.625C158.812 153.625 158.253 153.768 157.852 154.055C157.456 154.341 157.172 154.818 157 155.484C156.833 156.151 156.75 157.086 156.75 158.289C156.75 159.586 156.826 160.568 156.977 161.234C157.133 161.896 157.404 162.359 157.789 162.625C158.174 162.891 158.742 163.023 159.492 163.023ZM167.43 158.273C167.008 158.273 166.661 158.214 166.391 158.094C166.125 157.974 165.893 157.794 165.695 157.555C165.518 157.341 165.393 157.083 165.32 156.781C165.247 156.474 165.211 156.117 165.211 155.711C165.211 155.305 165.247 154.948 165.32 154.641C165.393 154.333 165.518 154.07 165.695 153.852C165.888 153.607 166.117 153.424 166.383 153.305C166.654 153.185 167 153.125 167.422 153.125C167.839 153.125 168.18 153.185 168.445 153.305C168.711 153.424 168.943 153.604 169.141 153.844C169.312 154.057 169.432 154.318 169.5 154.625C169.573 154.927 169.609 155.284 169.609 155.695C169.609 156.102 169.573 156.458 169.5 156.766C169.432 157.068 169.312 157.328 169.141 157.547C168.943 157.792 168.711 157.974 168.445 158.094C168.185 158.214 167.846 158.273 167.43 158.273ZM167.859 164.219L172.359 153.141L173.188 153.461L168.695 164.547L167.859 164.219ZM167.422 157.555C167.703 157.555 167.914 157.508 168.055 157.414C168.195 157.32 168.315 157.177 168.414 156.984C168.57 156.693 168.648 156.268 168.648 155.711C168.648 155.143 168.573 154.708 168.422 154.406C168.323 154.214 168.203 154.073 168.062 153.984C167.922 153.891 167.708 153.844 167.422 153.844C167.135 153.844 166.922 153.891 166.781 153.984C166.641 154.073 166.518 154.214 166.414 154.406C166.331 154.562 166.268 154.753 166.227 154.977C166.19 155.201 166.172 155.424 166.172 155.648C166.172 155.904 166.19 156.151 166.227 156.391C166.268 156.625 166.328 156.823 166.406 156.984C166.505 157.177 166.625 157.32 166.766 157.414C166.911 157.508 167.13 157.555 167.422 157.555ZM173.898 163.594C173.477 163.594 173.13 163.534 172.859 163.414C172.594 163.294 172.362 163.115 172.164 162.875C171.987 162.661 171.862 162.404 171.789 162.102C171.716 161.794 171.68 161.438 171.68 161.031C171.68 160.63 171.716 160.276 171.789 159.969C171.867 159.656 171.992 159.391 172.164 159.172C172.357 158.927 172.586 158.745 172.852 158.625C173.122 158.505 173.469 158.445 173.891 158.445C174.307 158.445 174.648 158.505 174.914 158.625C175.185 158.745 175.417 158.924 175.609 159.164C175.781 159.378 175.901 159.638 175.969 159.945C176.042 160.247 176.078 160.604 176.078 161.016C176.078 161.427 176.044 161.786 175.977 162.094C175.909 162.396 175.786 162.654 175.609 162.867C175.411 163.112 175.18 163.294 174.914 163.414C174.654 163.534 174.315 163.594 173.898 163.594ZM173.891 162.875C174.172 162.875 174.383 162.828 174.523 162.734C174.664 162.641 174.784 162.497 174.883 162.305C175.039 162.013 175.117 161.589 175.117 161.031C175.117 160.464 175.042 160.029 174.891 159.727C174.792 159.534 174.672 159.393 174.531 159.305C174.391 159.211 174.177 159.164 173.891 159.164C173.604 159.164 173.391 159.211 173.25 159.305C173.109 159.393 172.987 159.534 172.883 159.727C172.799 159.883 172.737 160.073 172.695 160.297C172.659 160.521 172.641 160.745 172.641 160.969C172.641 161.224 172.659 161.471 172.695 161.711C172.737 161.945 172.797 162.143 172.875 162.305C172.974 162.497 173.094 162.641 173.234 162.734C173.38 162.828 173.599 162.875 173.891 162.875Z" fill="black"/>
<path d="M88 46C88 53.4098 86.0397 60.6878 82.318 67.0952C78.5963 73.5025 73.2457 78.8113 66.8093 82.4825C60.3729 86.1538 53.0797 88.0569 45.6701 87.9987C38.2605 87.9405 30.9982 85.9231 24.6203 82.1512C18.2423 78.3793 12.9758 72.9871 9.35517 66.5221C5.73457 60.057 3.88879 52.7492 4.00518 45.3403C4.12157 37.9314 6.19598 30.6851 10.0179 24.337C13.8397 17.9889 19.2731 12.7648 25.7663 9.19512" stroke="black" stroke-width="8"/>
<path d="M88 159C88 167.307 85.5367 175.427 80.9217 182.334C76.3067 189.241 69.7472 194.624 62.0727 197.803C54.3982 200.982 45.9534 201.814 37.8062 200.193C29.659 198.572 22.1753 194.572 16.3015 188.698C10.4277 182.825 6.4276 175.341 4.80702 167.194C3.18644 159.047 4.01818 150.602 7.19706 142.927C10.3759 135.253 15.7592 128.693 22.6661 124.078C29.5729 119.463 37.6932 117 46 117" stroke="black" stroke-width="8"/>
<path d="M202 46C202 55.5471 198.747 64.8093 192.778 72.2602C186.809 79.711 178.479 84.9059 169.162 86.9885C159.845 89.0711 150.096 87.9173 141.523 83.7172C132.949 79.517 126.062 72.5212 121.997 63.8827C117.932 55.2443 116.932 45.4786 119.16 36.1953C121.389 26.912 126.714 18.665 134.258 12.8135C141.802 6.962 151.114 3.85522 160.66 4.00518C170.206 4.15514 179.416 7.55288 186.772 13.6384" stroke="black" stroke-width="8"/>
<path d="M202 159C202 165.628 200.431 172.162 197.422 178.068C194.413 183.973 190.049 189.083 184.687 192.979C179.325 196.875 173.117 199.446 166.57 200.483C160.024 201.52 153.325 200.993 147.021 198.944C140.718 196.896 134.988 193.385 130.302 188.698C125.615 184.012 122.104 178.282 120.056 171.979C118.007 165.675 117.48 158.976 118.517 152.43C119.554 145.883 122.125 139.675 126.021 134.313" stroke="black" stroke-width="8"/>
</svg>
