<svg width="206" height="205" viewBox="0 0 206 205" fill="none" xmlns="http://www.w3.org/2000/svg">
<path d="M32.3047 41.0234L30.5859 41.8438V40.5781L32.3672 39.6797H33.6641V51H32.3047V41.0234ZM40.5547 51.1641C39.4818 51.1641 38.6484 50.9844 38.0547 50.625C37.4661 50.2604 37.0443 49.6562 36.7891 48.8125C36.5339 47.9688 36.4062 46.7839 36.4062 45.2578C36.4062 43.7682 36.5339 42.612 36.7891 41.7891C37.0443 40.9661 37.4714 40.3776 38.0703 40.0234C38.6693 39.6693 39.5078 39.4922 40.5859 39.4922C41.6432 39.4922 42.4635 39.6693 43.0469 40.0234C43.6354 40.3776 44.0547 40.9661 44.3047 41.7891C44.5599 42.612 44.6875 43.7656 44.6875 45.25C44.6875 46.776 44.5599 47.9609 44.3047 48.8047C44.0495 49.6484 43.6276 50.2526 43.0391 50.6172C42.4505 50.9818 41.6224 51.1641 40.5547 51.1641ZM40.5391 50.0234C41.2943 50.0234 41.8646 49.888 42.25 49.6172C42.6354 49.3464 42.9062 48.875 43.0625 48.2031C43.2188 47.526 43.2969 46.526 43.2969 45.2031C43.2969 44.026 43.2135 43.1094 43.0469 42.4531C42.8802 41.7969 42.6016 41.3281 42.2109 41.0469C41.8203 40.7656 41.276 40.625 40.5781 40.625C39.8594 40.625 39.2995 40.7682 38.8984 41.0547C38.5026 41.3411 38.2188 41.8177 38.0469 42.4844C37.8802 43.151 37.7969 44.0859 37.7969 45.2891C37.7969 46.5859 37.8724 47.5677 38.0234 48.2344C38.1797 48.8958 38.4505 49.3594 38.8359 49.625C39.2214 49.8906 39.7891 50.0234 40.5391 50.0234ZM50.7109 51.1641C49.638 51.1641 48.8047 50.9844 48.2109 50.625C47.6224 50.2604 47.2005 49.6562 46.9453 48.8125C46.6901 47.9688 46.5625 46.7839 46.5625 45.2578C46.5625 43.7682 46.6901 42.612 46.9453 41.7891C47.2005 40.9661 47.6276 40.3776 48.2266 40.0234C48.8255 39.6693 49.6641 39.4922 50.7422 39.4922C51.7995 39.4922 52.6198 39.6693 53.2031 40.0234C53.7917 40.3776 54.2109 40.9661 54.4609 41.7891C54.7161 42.612 54.8438 43.7656 54.8438 45.25C54.8438 46.776 54.7161 47.9609 54.4609 48.8047C54.2057 49.6484 53.7839 50.2526 53.1953 50.6172C52.6068 50.9818 51.7786 51.1641 50.7109 51.1641ZM50.6953 50.0234C51.4505 50.0234 52.0208 49.888 52.4062 49.6172C52.7917 49.3464 53.0625 48.875 53.2188 48.2031C53.375 47.526 53.4531 46.526 53.4531 45.2031C53.4531 44.026 53.3698 43.1094 53.2031 42.4531C53.0365 41.7969 52.7578 41.3281 52.3672 41.0469C51.9766 40.7656 51.4323 40.625 50.7344 40.625C50.0156 40.625 49.4557 40.7682 49.0547 41.0547C48.6589 41.3411 48.375 41.8177 48.2031 42.4844C48.0365 43.151 47.9531 44.0859 47.9531 45.2891C47.9531 46.5859 48.0286 47.5677 48.1797 48.2344C48.3359 48.8958 48.6068 49.3594 48.9922 49.625C49.3776 49.8906 49.9453 50.0234 50.6953 50.0234ZM58.6328 45.2734C58.2109 45.2734 57.8646 45.2135 57.5938 45.0938C57.3281 44.974 57.0964 44.7943 56.8984 44.5547C56.7214 44.3411 56.5964 44.0833 56.5234 43.7812C56.4505 43.474 56.4141 43.1172 56.4141 42.7109C56.4141 42.3047 56.4505 41.9479 56.5234 41.6406C56.5964 41.3333 56.7214 41.0703 56.8984 40.8516C57.0911 40.6068 57.3203 40.4245 57.5859 40.3047C57.8568 40.1849 58.2031 40.125 58.625 40.125C59.0417 40.125 59.3828 40.1849 59.6484 40.3047C59.9141 40.4245 60.1458 40.6042 60.3438 40.8438C60.5156 41.0573 60.6354 41.3177 60.7031 41.625C60.776 41.9271 60.8125 42.2839 60.8125 42.6953C60.8125 43.1016 60.776 43.4583 60.7031 43.7656C60.6354 44.0677 60.5156 44.3281 60.3438 44.5469C60.1458 44.7917 59.9141 44.974 59.6484 45.0938C59.388 45.2135 59.0495 45.2734 58.6328 45.2734ZM59.0625 51.2188L63.5625 40.1406L64.3906 40.4609L59.8984 51.5469L59.0625 51.2188ZM58.625 44.5547C58.9062 44.5547 59.1172 44.5078 59.2578 44.4141C59.3984 44.3203 59.5182 44.1771 59.6172 43.9844C59.7734 43.6927 59.8516 43.2682 59.8516 42.7109C59.8516 42.1432 59.776 41.7083 59.625 41.4062C59.526 41.2135 59.4062 41.0729 59.2656 40.9844C59.125 40.8906 58.9115 40.8438 58.625 40.8438C58.3385 40.8438 58.125 40.8906 57.9844 40.9844C57.8438 41.0729 57.7214 41.2135 57.6172 41.4062C57.5339 41.5625 57.4714 41.7526 57.4297 41.9766C57.3932 42.2005 57.375 42.4245 57.375 42.6484C57.375 42.9036 57.3932 43.151 57.4297 43.3906C57.4714 43.625 57.5312 43.8229 57.6094 43.9844C57.7083 44.1771 57.8281 44.3203 57.9688 44.4141C58.1146 44.5078 58.3333 44.5547 58.625 44.5547ZM65.1016 50.5938C64.6797 50.5938 64.3333 50.5339 64.0625 50.4141C63.7969 50.2943 63.5651 50.1146 63.3672 49.875C63.1901 49.6615 63.0651 49.4036 62.9922 49.1016C62.9193 48.7943 62.8828 48.4375 62.8828 48.0312C62.8828 47.6302 62.9193 47.276 62.9922 46.9688C63.0703 46.6562 63.1953 46.3906 63.3672 46.1719C63.5599 45.9271 63.7891 45.7448 64.0547 45.625C64.3255 45.5052 64.6719 45.4453 65.0938 45.4453C65.5104 45.4453 65.8516 45.5052 66.1172 45.625C66.388 45.7448 66.6198 45.9245 66.8125 46.1641C66.9844 46.3776 67.1042 46.638 67.1719 46.9453C67.2448 47.2474 67.2812 47.6042 67.2812 48.0156C67.2812 48.4271 67.2474 48.7865 67.1797 49.0938C67.112 49.3958 66.9896 49.6536 66.8125 49.8672C66.6146 50.112 66.3828 50.2943 66.1172 50.4141C65.8568 50.5339 65.5182 50.5938 65.1016 50.5938ZM65.0938 49.875C65.375 49.875 65.5859 49.8281 65.7266 49.7344C65.8672 49.6406 65.987 49.4974 66.0859 49.3047C66.2422 49.013 66.3203 48.5885 66.3203 48.0312C66.3203 47.4635 66.2448 47.0286 66.0938 46.7266C65.9948 46.5339 65.875 46.3932 65.7344 46.3047C65.5938 46.2109 65.3802 46.1641 65.0938 46.1641C64.8073 46.1641 64.5938 46.2109 64.4531 46.3047C64.3125 46.3932 64.1901 46.5339 64.0859 46.7266C64.0026 46.8828 63.9401 47.0729 63.8984 47.2969C63.862 47.5208 63.8438 47.7448 63.8438 47.9688C63.8438 48.224 63.862 48.4714 63.8984 48.7109C63.9401 48.9453 64 49.1432 64.0781 49.3047C64.1771 49.4974 64.2969 49.6406 64.4375 49.7344C64.5833 49.8281 64.8021 49.875 65.0938 49.875Z" fill="black"/>
<path d="M34.5469 152.484C35.5469 152.484 36.3307 152.599 36.8984 152.828C37.4661 153.057 37.8698 153.422 38.1094 153.922C38.3542 154.422 38.474 155.102 38.4688 155.961L38.4531 160.836C38.4531 161.997 38.1406 162.857 37.5156 163.414C36.8958 163.971 35.9375 164.25 34.6406 164.25C33.4792 164.25 32.5807 164.023 31.9453 163.57C31.3099 163.112 30.9922 162.333 30.9922 161.234H32.2891C32.2891 161.719 32.3698 162.096 32.5312 162.367C32.6979 162.633 32.9531 162.82 33.2969 162.93C33.6406 163.039 34.1016 163.094 34.6797 163.094C35.263 163.094 35.7292 163.021 36.0781 162.875C36.4271 162.724 36.6823 162.49 36.8438 162.172C37.0052 161.854 37.0911 161.427 37.1016 160.891L37.1328 158.617C36.8568 159.018 36.4974 159.305 36.0547 159.477C35.6172 159.648 35.0208 159.734 34.2656 159.734C33.3438 159.734 32.6276 159.625 32.1172 159.406C31.612 159.188 31.25 158.826 31.0312 158.32C30.8125 157.815 30.7031 157.104 30.7031 156.188C30.7031 155.229 30.8125 154.487 31.0312 153.961C31.2552 153.435 31.6406 153.057 32.1875 152.828C32.7344 152.599 33.5208 152.484 34.5469 152.484ZM34.5625 153.641C33.8438 153.641 33.3125 153.711 32.9688 153.852C32.6302 153.987 32.3984 154.229 32.2734 154.578C32.1536 154.927 32.0938 155.461 32.0938 156.18C32.0938 156.81 32.1641 157.299 32.3047 157.648C32.4505 157.992 32.6901 158.24 33.0234 158.391C33.362 158.542 33.8359 158.617 34.4453 158.617C35.1849 158.617 35.7734 158.51 36.2109 158.297C36.6536 158.083 36.9583 157.753 37.125 157.305L37.1094 155.961C37.099 155.341 37.0156 154.867 36.8594 154.539C36.7031 154.206 36.4453 153.974 36.0859 153.844C35.7266 153.708 35.2188 153.641 34.5625 153.641ZM41.8047 154.023L40.0859 154.844V153.578L41.8672 152.68H43.1641V164H41.8047V154.023ZM47.6641 158.273C47.2422 158.273 46.8958 158.214 46.625 158.094C46.3594 157.974 46.1276 157.794 45.9297 157.555C45.7526 157.341 45.6276 157.083 45.5547 156.781C45.4818 156.474 45.4453 156.117 45.4453 155.711C45.4453 155.305 45.4818 154.948 45.5547 154.641C45.6276 154.333 45.7526 154.07 45.9297 153.852C46.1224 153.607 46.3516 153.424 46.6172 153.305C46.888 153.185 47.2344 153.125 47.6562 153.125C48.0729 153.125 48.4141 153.185 48.6797 153.305C48.9453 153.424 49.1771 153.604 49.375 153.844C49.5469 154.057 49.6667 154.318 49.7344 154.625C49.8073 154.927 49.8438 155.284 49.8438 155.695C49.8438 156.102 49.8073 156.458 49.7344 156.766C49.6667 157.068 49.5469 157.328 49.375 157.547C49.1771 157.792 48.9453 157.974 48.6797 158.094C48.4193 158.214 48.0807 158.273 47.6641 158.273ZM48.0938 164.219L52.5938 153.141L53.4219 153.461L48.9297 164.547L48.0938 164.219ZM47.6562 157.555C47.9375 157.555 48.1484 157.508 48.2891 157.414C48.4297 157.32 48.5495 157.177 48.6484 156.984C48.8047 156.693 48.8828 156.268 48.8828 155.711C48.8828 155.143 48.8073 154.708 48.6562 154.406C48.5573 154.214 48.4375 154.073 48.2969 153.984C48.1562 153.891 47.9427 153.844 47.6562 153.844C47.3698 153.844 47.1562 153.891 47.0156 153.984C46.875 154.073 46.7526 154.214 46.6484 154.406C46.5651 154.562 46.5026 154.753 46.4609 154.977C46.4245 155.201 46.4062 155.424 46.4062 155.648C46.4062 155.904 46.4245 156.151 46.4609 156.391C46.5026 156.625 46.5625 156.823 46.6406 156.984C46.7396 157.177 46.8594 157.32 47 157.414C47.1458 157.508 47.3646 157.555 47.6562 157.555ZM54.1328 163.594C53.7109 163.594 53.3646 163.534 53.0938 163.414C52.8281 163.294 52.5964 163.115 52.3984 162.875C52.2214 162.661 52.0964 162.404 52.0234 162.102C51.9505 161.794 51.9141 161.438 51.9141 161.031C51.9141 160.63 51.9505 160.276 52.0234 159.969C52.1016 159.656 52.2266 159.391 52.3984 159.172C52.5911 158.927 52.8203 158.745 53.0859 158.625C53.3568 158.505 53.7031 158.445 54.125 158.445C54.5417 158.445 54.8828 158.505 55.1484 158.625C55.4193 158.745 55.651 158.924 55.8438 159.164C56.0156 159.378 56.1354 159.638 56.2031 159.945C56.276 160.247 56.3125 160.604 56.3125 161.016C56.3125 161.427 56.2786 161.786 56.2109 162.094C56.1432 162.396 56.0208 162.654 55.8438 162.867C55.6458 163.112 55.4141 163.294 55.1484 163.414C54.888 163.534 54.5495 163.594 54.1328 163.594ZM54.125 162.875C54.4062 162.875 54.6172 162.828 54.7578 162.734C54.8984 162.641 55.0182 162.497 55.1172 162.305C55.2734 162.013 55.3516 161.589 55.3516 161.031C55.3516 160.464 55.276 160.029 55.125 159.727C55.026 159.534 54.9062 159.393 54.7656 159.305C54.625 159.211 54.4115 159.164 54.125 159.164C53.8385 159.164 53.625 159.211 53.4844 159.305C53.3438 159.393 53.2214 159.534 53.1172 159.727C53.0339 159.883 52.9714 160.073 52.9297 160.297C52.8932 160.521 52.875 160.745 52.875 160.969C52.875 161.224 52.8932 161.471 52.9297 161.711C52.9714 161.945 53.0312 162.143 53.1094 162.305C53.2083 162.497 53.3281 162.641 53.4688 162.734C53.6146 162.828 53.8333 162.875 54.125 162.875Z" fill="black"/>
<path d="M149.547 39.4844C150.547 39.4844 151.331 39.599 151.898 39.8281C152.466 40.0573 152.87 40.4219 153.109 40.9219C153.354 41.4219 153.474 42.1016 153.469 42.9609L153.453 47.8359C153.453 48.9974 153.141 49.8568 152.516 50.4141C151.896 50.9714 150.938 51.25 149.641 51.25C148.479 51.25 147.581 51.0234 146.945 50.5703C146.31 50.112 145.992 49.3333 145.992 48.2344H147.289C147.289 48.7188 147.37 49.0964 147.531 49.3672C147.698 49.6328 147.953 49.8203 148.297 49.9297C148.641 50.0391 149.102 50.0938 149.68 50.0938C150.263 50.0938 150.729 50.0208 151.078 49.875C151.427 49.724 151.682 49.4896 151.844 49.1719C152.005 48.8542 152.091 48.4271 152.102 47.8906L152.133 45.6172C151.857 46.0182 151.497 46.3047 151.055 46.4766C150.617 46.6484 150.021 46.7344 149.266 46.7344C148.344 46.7344 147.628 46.625 147.117 46.4062C146.612 46.1875 146.25 45.8255 146.031 45.3203C145.812 44.8151 145.703 44.1042 145.703 43.1875C145.703 42.2292 145.812 41.487 146.031 40.9609C146.255 40.4349 146.641 40.0573 147.188 39.8281C147.734 39.599 148.521 39.4844 149.547 39.4844ZM149.562 40.6406C148.844 40.6406 148.312 40.7109 147.969 40.8516C147.63 40.987 147.398 41.2292 147.273 41.5781C147.154 41.9271 147.094 42.4609 147.094 43.1797C147.094 43.8099 147.164 44.2995 147.305 44.6484C147.451 44.9922 147.69 45.2396 148.023 45.3906C148.362 45.5417 148.836 45.6172 149.445 45.6172C150.185 45.6172 150.773 45.5104 151.211 45.2969C151.654 45.0833 151.958 44.7526 152.125 44.3047L152.109 42.9609C152.099 42.3411 152.016 41.8672 151.859 41.5391C151.703 41.2057 151.445 40.974 151.086 40.8438C150.727 40.7083 150.219 40.6406 149.562 40.6406ZM160.391 45.0859C161.938 45.3672 162.711 46.3359 162.711 47.9922C162.711 49.0807 162.398 49.8828 161.773 50.3984C161.148 50.9089 160.185 51.1641 158.883 51.1641C157.586 51.1641 156.628 50.9089 156.008 50.3984C155.388 49.8828 155.078 49.0807 155.078 47.9922C155.078 46.3464 155.846 45.3776 157.383 45.0859C156.018 44.6328 155.336 43.7682 155.336 42.4922C155.336 41.4661 155.625 40.7109 156.203 40.2266C156.781 39.7422 157.677 39.5 158.891 39.5C160.104 39.5 160.997 39.7422 161.57 40.2266C162.148 40.7109 162.438 41.4661 162.438 42.4922C162.438 43.7682 161.755 44.6328 160.391 45.0859ZM156.633 42.4922C156.633 42.8828 156.721 43.2292 156.898 43.5312C157.076 43.8333 157.333 44.0677 157.672 44.2344C158.01 44.401 158.417 44.4844 158.891 44.4844C159.365 44.4844 159.771 44.401 160.109 44.2344C160.448 44.0677 160.703 43.8333 160.875 43.5312C161.052 43.2292 161.141 42.8828 161.141 42.4922C161.141 41.8516 160.958 41.3828 160.594 41.0859C160.229 40.7839 159.661 40.6328 158.891 40.6328C158.12 40.6328 157.549 40.7839 157.18 41.0859C156.815 41.3828 156.633 41.8516 156.633 42.4922ZM158.883 50.0234C159.737 50.0234 160.367 49.8594 160.773 49.5312C161.18 49.2031 161.383 48.6901 161.383 47.9922C161.383 46.4453 160.521 45.6719 158.797 45.6719C157.984 45.6719 157.38 45.8672 156.984 46.2578C156.589 46.6432 156.391 47.2214 156.391 47.9922C156.391 48.6901 156.594 49.2031 157 49.5312C157.406 49.8594 158.034 50.0234 158.883 50.0234ZM166.195 45.2734C165.773 45.2734 165.427 45.2135 165.156 45.0938C164.891 44.974 164.659 44.7943 164.461 44.5547C164.284 44.3411 164.159 44.0833 164.086 43.7812C164.013 43.474 163.977 43.1172 163.977 42.7109C163.977 42.3047 164.013 41.9479 164.086 41.6406C164.159 41.3333 164.284 41.0703 164.461 40.8516C164.654 40.6068 164.883 40.4245 165.148 40.3047C165.419 40.1849 165.766 40.125 166.188 40.125C166.604 40.125 166.945 40.1849 167.211 40.3047C167.477 40.4245 167.708 40.6042 167.906 40.8438C168.078 41.0573 168.198 41.3177 168.266 41.625C168.339 41.9271 168.375 42.2839 168.375 42.6953C168.375 43.1016 168.339 43.4583 168.266 43.7656C168.198 44.0677 168.078 44.3281 167.906 44.5469C167.708 44.7917 167.477 44.974 167.211 45.0938C166.951 45.2135 166.612 45.2734 166.195 45.2734ZM166.625 51.2188L171.125 40.1406L171.953 40.4609L167.461 51.5469L166.625 51.2188ZM166.188 44.5547C166.469 44.5547 166.68 44.5078 166.82 44.4141C166.961 44.3203 167.081 44.1771 167.18 43.9844C167.336 43.6927 167.414 43.2682 167.414 42.7109C167.414 42.1432 167.339 41.7083 167.188 41.4062C167.089 41.2135 166.969 41.0729 166.828 40.9844C166.688 40.8906 166.474 40.8438 166.188 40.8438C165.901 40.8438 165.688 40.8906 165.547 40.9844C165.406 41.0729 165.284 41.2135 165.18 41.4062C165.096 41.5625 165.034 41.7526 164.992 41.9766C164.956 42.2005 164.938 42.4245 164.938 42.6484C164.938 42.9036 164.956 43.151 164.992 43.3906C165.034 43.625 165.094 43.8229 165.172 43.9844C165.271 44.1771 165.391 44.3203 165.531 44.4141C165.677 44.5078 165.896 44.5547 166.188 44.5547ZM172.664 50.5938C172.242 50.5938 171.896 50.5339 171.625 50.4141C171.359 50.2943 171.128 50.1146 170.93 49.875C170.753 49.6615 170.628 49.4036 170.555 49.1016C170.482 48.7943 170.445 48.4375 170.445 48.0312C170.445 47.6302 170.482 47.276 170.555 46.9688C170.633 46.6562 170.758 46.3906 170.93 46.1719C171.122 45.9271 171.352 45.7448 171.617 45.625C171.888 45.5052 172.234 45.4453 172.656 45.4453C173.073 45.4453 173.414 45.5052 173.68 45.625C173.951 45.7448 174.182 45.9245 174.375 46.1641C174.547 46.3776 174.667 46.638 174.734 46.9453C174.807 47.2474 174.844 47.6042 174.844 48.0156C174.844 48.4271 174.81 48.7865 174.742 49.0938C174.674 49.3958 174.552 49.6536 174.375 49.8672C174.177 50.112 173.945 50.2943 173.68 50.4141C173.419 50.5339 173.081 50.5938 172.664 50.5938ZM172.656 49.875C172.938 49.875 173.148 49.8281 173.289 49.7344C173.43 49.6406 173.549 49.4974 173.648 49.3047C173.805 49.013 173.883 48.5885 173.883 48.0312C173.883 47.4635 173.807 47.0286 173.656 46.7266C173.557 46.5339 173.438 46.3932 173.297 46.3047C173.156 46.2109 172.943 46.1641 172.656 46.1641C172.37 46.1641 172.156 46.2109 172.016 46.3047C171.875 46.3932 171.753 46.5339 171.648 46.7266C171.565 46.8828 171.503 47.0729 171.461 47.2969C171.424 47.5208 171.406 47.7448 171.406 47.9688C171.406 48.224 171.424 48.4714 171.461 48.7109C171.503 48.9453 171.562 49.1432 171.641 49.3047C171.74 49.4974 171.859 49.6406 172 49.7344C172.146 49.8281 172.365 49.875 172.656 49.875Z" fill="black"/>
<path d="M149.547 152.484C150.547 152.484 151.331 152.599 151.898 152.828C152.466 153.057 152.87 153.422 153.109 153.922C153.354 154.422 153.474 155.102 153.469 155.961L153.453 160.836C153.453 161.997 153.141 162.857 152.516 163.414C151.896 163.971 150.938 164.25 149.641 164.25C148.479 164.25 147.581 164.023 146.945 163.57C146.31 163.112 145.992 162.333 145.992 161.234H147.289C147.289 161.719 147.37 162.096 147.531 162.367C147.698 162.633 147.953 162.82 148.297 162.93C148.641 163.039 149.102 163.094 149.68 163.094C150.263 163.094 150.729 163.021 151.078 162.875C151.427 162.724 151.682 162.49 151.844 162.172C152.005 161.854 152.091 161.427 152.102 160.891L152.133 158.617C151.857 159.018 151.497 159.305 151.055 159.477C150.617 159.648 150.021 159.734 149.266 159.734C148.344 159.734 147.628 159.625 147.117 159.406C146.612 159.188 146.25 158.826 146.031 158.32C145.812 157.815 145.703 157.104 145.703 156.188C145.703 155.229 145.812 154.487 146.031 153.961C146.255 153.435 146.641 153.057 147.188 152.828C147.734 152.599 148.521 152.484 149.547 152.484ZM149.562 153.641C148.844 153.641 148.312 153.711 147.969 153.852C147.63 153.987 147.398 154.229 147.273 154.578C147.154 154.927 147.094 155.461 147.094 156.18C147.094 156.81 147.164 157.299 147.305 157.648C147.451 157.992 147.69 158.24 148.023 158.391C148.362 158.542 148.836 158.617 149.445 158.617C150.185 158.617 150.773 158.51 151.211 158.297C151.654 158.083 151.958 157.753 152.125 157.305L152.109 155.961C152.099 155.341 152.016 154.867 151.859 154.539C151.703 154.206 151.445 153.974 151.086 153.844C150.727 153.708 150.219 153.641 149.562 153.641ZM159.289 164.25C158.289 164.25 157.505 164.135 156.938 163.906C156.37 163.677 155.964 163.312 155.719 162.812C155.479 162.312 155.362 161.633 155.367 160.773L155.383 155.898C155.383 154.737 155.693 153.878 156.312 153.32C156.938 152.763 157.898 152.484 159.195 152.484C160.357 152.484 161.255 152.714 161.891 153.172C162.526 153.625 162.844 154.401 162.844 155.5H161.547C161.547 155.016 161.464 154.641 161.297 154.375C161.135 154.104 160.883 153.914 160.539 153.805C160.195 153.695 159.734 153.641 159.156 153.641C158.573 153.641 158.107 153.716 157.758 153.867C157.409 154.013 157.154 154.245 156.992 154.562C156.831 154.88 156.745 155.307 156.734 155.844L156.703 158.117C156.979 157.716 157.336 157.43 157.773 157.258C158.216 157.086 158.815 157 159.57 157C160.492 157 161.206 157.109 161.711 157.328C162.221 157.547 162.586 157.909 162.805 158.414C163.023 158.919 163.133 159.63 163.133 160.547C163.133 161.505 163.021 162.247 162.797 162.773C162.578 163.299 162.195 163.677 161.648 163.906C161.102 164.135 160.315 164.25 159.289 164.25ZM159.273 163.094C159.992 163.094 160.521 163.026 160.859 162.891C161.203 162.75 161.435 162.505 161.555 162.156C161.68 161.807 161.742 161.273 161.742 160.555C161.742 159.924 161.669 159.438 161.523 159.094C161.383 158.745 161.143 158.495 160.805 158.344C160.471 158.193 160 158.117 159.391 158.117C158.651 158.117 158.06 158.224 157.617 158.438C157.18 158.651 156.878 158.982 156.711 159.43L156.727 160.773C156.737 161.393 156.82 161.87 156.977 162.203C157.133 162.531 157.391 162.763 157.75 162.898C158.109 163.029 158.617 163.094 159.273 163.094ZM166.617 158.273C166.195 158.273 165.849 158.214 165.578 158.094C165.312 157.974 165.081 157.794 164.883 157.555C164.706 157.341 164.581 157.083 164.508 156.781C164.435 156.474 164.398 156.117 164.398 155.711C164.398 155.305 164.435 154.948 164.508 154.641C164.581 154.333 164.706 154.07 164.883 153.852C165.076 153.607 165.305 153.424 165.57 153.305C165.841 153.185 166.188 153.125 166.609 153.125C167.026 153.125 167.367 153.185 167.633 153.305C167.898 153.424 168.13 153.604 168.328 153.844C168.5 154.057 168.62 154.318 168.688 154.625C168.76 154.927 168.797 155.284 168.797 155.695C168.797 156.102 168.76 156.458 168.688 156.766C168.62 157.068 168.5 157.328 168.328 157.547C168.13 157.792 167.898 157.974 167.633 158.094C167.372 158.214 167.034 158.273 166.617 158.273ZM167.047 164.219L171.547 153.141L172.375 153.461L167.883 164.547L167.047 164.219ZM166.609 157.555C166.891 157.555 167.102 157.508 167.242 157.414C167.383 157.32 167.503 157.177 167.602 156.984C167.758 156.693 167.836 156.268 167.836 155.711C167.836 155.143 167.76 154.708 167.609 154.406C167.51 154.214 167.391 154.073 167.25 153.984C167.109 153.891 166.896 153.844 166.609 153.844C166.323 153.844 166.109 153.891 165.969 153.984C165.828 154.073 165.706 154.214 165.602 154.406C165.518 154.562 165.456 154.753 165.414 154.977C165.378 155.201 165.359 155.424 165.359 155.648C165.359 155.904 165.378 156.151 165.414 156.391C165.456 156.625 165.516 156.823 165.594 156.984C165.693 157.177 165.812 157.32 165.953 157.414C166.099 157.508 166.318 157.555 166.609 157.555ZM173.086 163.594C172.664 163.594 172.318 163.534 172.047 163.414C171.781 163.294 171.549 163.115 171.352 162.875C171.174 162.661 171.049 162.404 170.977 162.102C170.904 161.794 170.867 161.438 170.867 161.031C170.867 160.63 170.904 160.276 170.977 159.969C171.055 159.656 171.18 159.391 171.352 159.172C171.544 158.927 171.773 158.745 172.039 158.625C172.31 158.505 172.656 158.445 173.078 158.445C173.495 158.445 173.836 158.505 174.102 158.625C174.372 158.745 174.604 158.924 174.797 159.164C174.969 159.378 175.089 159.638 175.156 159.945C175.229 160.247 175.266 160.604 175.266 161.016C175.266 161.427 175.232 161.786 175.164 162.094C175.096 162.396 174.974 162.654 174.797 162.867C174.599 163.112 174.367 163.294 174.102 163.414C173.841 163.534 173.503 163.594 173.086 163.594ZM173.078 162.875C173.359 162.875 173.57 162.828 173.711 162.734C173.852 162.641 173.971 162.497 174.07 162.305C174.227 162.013 174.305 161.589 174.305 161.031C174.305 160.464 174.229 160.029 174.078 159.727C173.979 159.534 173.859 159.393 173.719 159.305C173.578 159.211 173.365 159.164 173.078 159.164C172.792 159.164 172.578 159.211 172.438 159.305C172.297 159.393 172.174 159.534 172.07 159.727C171.987 159.883 171.924 160.073 171.883 160.297C171.846 160.521 171.828 160.745 171.828 160.969C171.828 161.224 171.846 161.471 171.883 161.711C171.924 161.945 171.984 162.143 172.062 162.305C172.161 162.497 172.281 162.641 172.422 162.734C172.568 162.828 172.786 162.875 173.078 162.875Z" fill="black"/>
<path d="M88 46C88 51.5155 86.9136 56.977 84.8029 62.0727C82.6922 67.1684 79.5985 71.7984 75.6985 75.6985C71.7984 79.5985 67.1684 82.6922 62.0727 84.8029C56.977 86.9136 51.5155 88 46 88C40.4845 88 35.023 86.9136 29.9273 84.8029C24.8316 82.6922 20.2016 79.5985 16.3015 75.6985C12.4015 71.7984 9.30776 67.1684 7.19706 62.0727C5.08636 56.977 4 51.5155 4 46C4 40.4845 5.08636 35.023 7.19706 29.9273C9.30776 24.8316 12.4015 20.2016 16.3015 16.3015C20.2016 12.4015 24.8316 9.30775 29.9273 7.19706C35.023 5.08636 40.4845 4 46 4C51.5155 4 56.977 5.08636 62.0727 7.19706C67.1684 9.30776 71.7984 12.4015 75.6985 16.3015C79.5985 20.2016 82.6922 24.8316 84.8029 29.9273C86.9136 35.023 88 40.4845 88 46L88 46Z" stroke="black" stroke-width="8"/>
<path d="M88 159C88 169.114 84.3504 178.888 77.7218 186.527C71.0932 194.166 61.9308 199.156 51.9179 200.581C41.9049 202.006 31.714 199.77 23.2175 194.284C14.7209 188.798 8.48934 180.43 5.66767 170.718C2.846 161.005 3.62373 150.601 7.85799 141.416C12.0922 132.231 19.4986 124.883 28.7164 120.721C37.9342 116.559 48.3442 115.863 58.034 118.761C67.7238 121.659 76.0425 127.956 81.4618 136.495" stroke="black" stroke-width="8"/>
<path d="M202 46C202 56.9107 197.754 67.3931 190.161 75.2283C182.568 83.0636 172.225 87.6366 161.319 87.9793C150.414 88.322 139.803 84.4075 131.733 77.0645C123.664 69.7215 118.768 59.5263 118.083 48.6372C117.398 37.7481 120.977 27.0197 128.063 18.7232C135.149 10.4267 145.185 5.21318 156.047 4.1864C166.91 3.15961 177.745 6.40012 186.26 13.2219C194.775 20.0437 200.301 29.9114 201.669 40.736" stroke="black" stroke-width="8"/>
<path d="M202 159C202 169.683 197.929 179.964 190.617 187.751C183.304 195.538 173.299 200.246 162.637 200.917C151.976 201.588 141.459 198.171 133.228 191.362C124.997 184.552 119.67 174.862 118.331 164.264C116.992 153.666 119.742 142.955 126.021 134.313C132.3 125.671 141.637 119.746 152.13 117.744C162.623 115.742 173.485 117.814 182.505 123.538C191.524 129.262 198.024 138.208 200.68 148.555" stroke="black" stroke-width="8"/>
</svg>
